<svg width="16" height="16" viewBox="0 0 16 16" fill="none" xmlns="http://www.w3.org/2000/svg">
<g clip-path="url(#clip0_7498_19214)">
<path opacity="0.2" d="M8 6.5C8.82843 6.5 9.5 5.82843 9.5 5C9.5 4.17157 8.82843 3.5 8 3.5C7.17157 3.5 6.5 4.17157 6.5 5C6.5 5.82843 7.17157 6.5 8 6.5Z" fill="#5E59CE"/>
<path opacity="0.2" d="M2.5 12.5C3.32843 12.5 4 11.8284 4 11C4 10.1716 3.32843 9.5 2.5 9.5C1.67157 9.5 1 10.1716 1 11C1 11.8284 1.67157 12.5 2.5 12.5Z" fill="#5E59CE"/>
<path opacity="0.2" d="M13.5 12.5C14.3284 12.5 15 11.8284 15 11C15 10.1716 14.3284 9.5 13.5 9.5C12.6716 9.5 12 10.1716 12 11C12 11.8284 12.6716 12.5 13.5 12.5Z" fill="#5E59CE"/>
<path d="M1 5H6.5" stroke="#5E59CE" stroke-linecap="round" stroke-linejoin="round"/>
<path d="M9.5 5H15" stroke="#5E59CE" stroke-linecap="round" stroke-linejoin="round"/>
<path d="M8 6.5C8.82843 6.5 9.5 5.82843 9.5 5C9.5 4.17157 8.82843 3.5 8 3.5C7.17157 3.5 6.5 4.17157 6.5 5C6.5 5.82843 7.17157 6.5 8 6.5Z" stroke="#5E59CE" stroke-linecap="round" stroke-linejoin="round"/>
<path d="M2.5 12.5C3.32843 12.5 4 11.8284 4 11C4 10.1716 3.32843 9.5 2.5 9.5C1.67157 9.5 1 10.1716 1 11C1 11.8284 1.67157 12.5 2.5 12.5Z" stroke="#5E59CE" stroke-linecap="round" stroke-linejoin="round"/>
<path d="M13.5 12.5C14.3284 12.5 15 11.8284 15 11C15 10.1716 14.3284 9.5 13.5 9.5C12.6716 9.5 12 10.1716 12 11C12 11.8284 12.6716 12.5 13.5 12.5Z" stroke="#5E59CE" stroke-linecap="round" stroke-linejoin="round"/>
<path d="M9.48438 5.20312C10.4748 5.48183 11.3673 6.03237 12.0608 6.79237C12.7543 7.55237 13.221 8.49143 13.4081 9.50312" stroke="#5E59CE" stroke-linecap="round" stroke-linejoin="round"/>
<path d="M2.59375 9.50312C2.78092 8.49146 3.2477 7.55243 3.94118 6.79245C4.63467 6.03246 5.52715 5.48189 6.5175 5.20312" stroke="#5E59CE" stroke-linecap="round" stroke-linejoin="round"/>
</g>
<defs>
<clipPath id="clip0_7498_19214">
<rect width="16" height="16" fill="white"/>
</clipPath>
</defs>
</svg>
