<svg width="75" height="75" viewBox="0 0 75 75" fill="none" xmlns="http://www.w3.org/2000/svg">
<path d="M0 8C0 3.58172 3.58172 0 8 0H67C71.4183 0 75 3.58172 75 8V67C75 71.4183 71.4183 75 67 75H8C3.58172 75 0 71.4183 0 67V8Z" fill="black"/>
<path d="M52 37.5006C52.0008 37.8402 51.9138 38.1741 51.7473 38.4701C51.5808 38.766 51.3406 39.0138 51.05 39.1894L33.04 50.2069C32.7364 50.3928 32.3886 50.4943 32.0326 50.5009C31.6766 50.5075 31.3253 50.4189 31.015 50.2444C30.7076 50.0725 30.4516 49.8219 30.2732 49.5183C30.0948 49.2147 30.0005 48.869 30 48.5169V26.4844C30.0005 26.1322 30.0948 25.7866 30.2732 25.483C30.4516 25.1793 30.7076 24.9287 31.015 24.7569C31.3253 24.5823 31.6766 24.4938 32.0326 24.5003C32.3886 24.5069 32.7364 24.6084 33.04 24.7944L51.05 35.8119C51.3406 35.9875 51.5808 36.2353 51.7473 36.5312C51.9138 36.8271 52.0008 37.1611 52 37.5006Z" fill="white"/>
</svg>
