<svg width="60" height="60" viewBox="0 0 60 60" fill="none" xmlns="http://www.w3.org/2000/svg">
<foreignObject x="-5.25" y="-5.25" width="70.5" height="70.5"><div xmlns="http://www.w3.org/1999/xhtml" style="backdrop-filter:blur(2.63px);clip-path:url(#bgblur_0_7180_6446_clip_path);height:100%;width:100%"></div></foreignObject><circle data-figma-bg-blur-radius="5.25" cx="30" cy="30" r="30" fill="white" fill-opacity="0.12"/>
<circle cx="30.375" cy="30.375" r="20.375" fill="white"/>
<path d="M37.4111 30.2191C37.4116 30.3935 37.3668 30.565 37.2813 30.717C37.1958 30.869 37.0724 30.9963 36.9231 31.0865L27.6719 36.7459C27.5159 36.8414 27.3373 36.8936 27.1544 36.897C26.9716 36.9003 26.7911 36.8548 26.6317 36.7652C26.4738 36.6769 26.3423 36.5482 26.2507 36.3922C26.1591 36.2362 26.1106 36.0587 26.1104 35.8778V24.5603C26.1106 24.3794 26.1591 24.2019 26.2507 24.0459C26.3423 23.89 26.4738 23.7612 26.6317 23.673C26.7911 23.5833 26.9716 23.5378 27.1544 23.5412C27.3373 23.5446 27.5159 23.5967 27.6719 23.6922L36.9231 29.3516C37.0724 29.4418 37.1958 29.5691 37.2813 29.7211C37.3668 29.8731 37.4116 30.0447 37.4111 30.2191Z" fill="#FE7F28"/>
<defs>
<clipPath id="bgblur_0_7180_6446_clip_path" transform="translate(5.25 5.25)"><circle cx="30" cy="30" r="30"/>
</clipPath></defs>
</svg>
